<svg version="1.1" viewBox="0.0 0.0 960.0 720.0" fill="none" stroke="none" stroke-linecap="square" stroke-miterlimit="10" xmlns:xlink="http://www.w3.org/1999/xlink" xmlns="http://www.w3.org/2000/svg"><clipPath id="p.0"><path d="m0 0l960.0 0l0 720.0l-960.0 0l0 -720.0z" clip-rule="nonzero"/></clipPath><g clip-path="url(#p.0)"><path fill="#000000" fill-opacity="0.0" d="m0 0l960.0 0l0 720.0l-960.0 0z" fill-rule="evenodd"/><path fill="#000000" fill-opacity="0.0" d="m190.56693 360.0l0 0c0 -159.84947 129.58362 -289.43307 289.43307 -289.43307l0 0c76.76245 0 150.38086 30.493752 204.6601 84.77299c54.279236 54.27922 84.77295 127.89766 84.77295 204.66008l0 0c0 159.84949 -129.58356 289.43304 -289.43304 289.43304l0 0c-159.84946 0 -289.43307 -129.58356 -289.43307 -289.43304z" fill-rule="evenodd"/><path stroke="#3d348b" stroke-width="12.0" stroke-linejoin="round" stroke-linecap="butt" d="m190.56693 360.0l0 0c0 -159.84947 129.58362 -289.43307 289.43307 -289.43307l0 0c76.76245 0 150.38086 30.493752 204.6601 84.77299c54.279236 54.27922 84.77295 127.89766 84.77295 204.66008l0 0c0 159.84949 -129.58356 289.43304 -289.43304 289.43304l0 0c-159.84946 0 -289.43307 -129.58356 -289.43307 -289.43304z" fill-rule="evenodd"/><path fill="#000000" fill-opacity="0.0" d="m190.56693 359.3386l72.09448 0l0 1.322815l-72.09448 0z" fill-rule="evenodd"/><path stroke="#3d348b" stroke-width="12.0" stroke-linejoin="round" stroke-linecap="butt" d="m190.56693 359.3386l72.09448 0l0 1.322815l-72.09448 0z" fill-rule="evenodd"/><path fill="#000000" fill-opacity="0.0" d="m697.33856 359.3386l72.09448 0l0 1.322815l-72.09448 0z" fill-rule="evenodd"/><path stroke="#3d348b" stroke-width="12.0" stroke-linejoin="round" stroke-linecap="butt" d="m697.33856 359.3386l72.09448 0l0 1.322815l-72.09448 0z" fill-rule="evenodd"/><path fill="#000000" fill-opacity="0.0" d="m480.6614 70.56693l0 72.09449l-1.322815 0l0 -72.09449z" fill-rule="evenodd"/><path stroke="#3d348b" stroke-width="12.0" stroke-linejoin="round" stroke-linecap="butt" d="m480.6614 70.56693l0 72.09449l-1.322815 0l0 -72.09449z" fill-rule="evenodd"/><path fill="#000000" fill-opacity="0.0" d="m480.6614 577.33856l0 72.09448l-1.322815 0l0 -72.09448z" fill-rule="evenodd"/><path stroke="#3d348b" stroke-width="12.0" stroke-linejoin="round" stroke-linecap="butt" d="m480.6614 577.33856l0 72.09448l-1.322815 0l0 -72.09448z" fill-rule="evenodd"/><path fill="#3d348b" d="m459.85828 360.0l0 0c0 -11.123962 9.017761 -20.141724 20.141724 -20.141724l0 0c5.341919 0 10.465057 2.1220703 14.242371 5.899353c3.7772827 3.7773132 5.899353 8.900452 5.899353 14.242371l0 0c0 11.123962 -9.017761 20.141724 -20.141724 20.141724l0 0c-11.123962 0 -20.141724 -9.017761 -20.141724 -20.141724z" fill-rule="evenodd"/><path stroke="#3d348b" stroke-width="12.0" stroke-linejoin="round" stroke-linecap="butt" d="m459.85828 360.0l0 0c0 -11.123962 9.017761 -20.141724 20.141724 -20.141724l0 0c5.341919 0 10.465057 2.1220703 14.242371 5.899353c3.7772827 3.7773132 5.899353 8.900452 5.899353 14.242371l0 0c0 11.123962 -9.017761 20.141724 -20.141724 20.141724l0 0c-11.123962 0 -20.141724 -9.017761 -20.141724 -20.141724z" fill-rule="evenodd"/><path fill="#000000" fill-opacity="0.0" d="m480.77167 225.51181l0 133.82678l-1.543335 0l0 -133.82678z" fill-rule="evenodd"/><path stroke="#3d348b" stroke-width="12.0" stroke-linejoin="round" stroke-linecap="butt" d="m480.77167 225.51181l0 133.82678l-1.543335 0l0 -133.82678z" fill-rule="evenodd"/><path fill="#000000" fill-opacity="0.0" d="m649.622 432.56754l-170.3937 -70.89761l0.9763794 -2.330719l170.3937 70.897644z" fill-rule="evenodd"/><path stroke="#3d348b" stroke-width="12.0" stroke-linejoin="round" stroke-linecap="butt" d="m649.622 432.56754l-170.3937 -70.89761l0.9763794 -2.330719l170.3937 70.897644z" fill-rule="evenodd"/></g></svg>